# xmcd
#
# Track frame offsets: 
#        150
#        19380
#        36343
#        56569
#        70262
#        87769
#        103795
#        117976
#        135603
#        153966
#        171852
#        189085
#        199228
#
# Disc length: 2904 seconds
#
# Revision: 0
# Processed by: cddbd v1.5.2PL0 Copyright (c) Steve Scherf et al.
# Submitted via: ExactAudioCopy v0.99pb5
#
DISCID=b00b560d
DTITLE=Max Mutzke - Max Mutzke
DYEAR=2005
DGENRE=Ballad
TTITLE0=schwarz auf weiß
TTITLE1=catch me if you can
TTITLE2=du wirst seh´n
TTITLE3=can´t wait until tomight
TTITLE4=c´mon people
TTITLE5=nur du
TTITLE6=ain´t no sunshine
TTITLE7=mehr als nur das
TTITLE8=you
TTITLE9=spür dein licht
TTITLE10=weg von hier
TTITLE11=you
TTITLE12=schwarz auf weiß/ remix
EXTD=
EXTT0=
EXTT1=
EXTT2=
EXTT3=
EXTT4=
EXTT5=
EXTT6=
EXTT7=
EXTT8=
EXTT9=
EXTT10=
EXTT11=
EXTT12=
PLAYORDER=
